Coordinates
version=1
nRows=9
nColumns=24
inDegrees=yes

Units are S.I. units (second, meters, Newtons, ...)
Angles are in degrees.

endheader
time	pelvis_tilt	pelvis_list	pelvis_rotation	pelvis_tx	pelvis_ty	pelvis_tz	hip_flexion_r	hip_adduction_r	hip_rotation_r	knee_angle_r	ankle_angle_r	subtalar_angle_r	mtp_angle_r	hip_flexion_l	hip_adduction_l	hip_rotation_l	knee_angle_l	ankle_angle_l	subtalar_angle_l	mtp_angle_l	lumbar_extension	lumbar_bending	lumbar_rotation
      1.54000000	      7.55898915	      2.45344666	     -4.52630332	      0.19551401	      1.02530505	      0.00001915	      4.23652616	     -6.83039912	     -5.18037607	    -66.48795342	     -1.05039746	      0.00000000	      0.00000000	     -0.23533450	      6.55208608	     -3.96421855	    -12.71329925	      9.88130452	      0.00000000	      0.00000000	    -18.23367226	     -6.27307387	     -4.41663354
      1.55000000	      7.70031934	      2.34936227	     -4.27095909	      0.19502891	      1.02608384	     -0.00112869	      5.28488183	     -6.75039478	     -5.12717315	    -67.82184998	     -0.19336010	      0.00000000	      0.00000000	     -0.88211234	      6.54276745	     -3.67469210	    -12.68620379	     10.16521857	      0.00000000	      0.00000000	    -18.39226780	     -6.08694432	     -4.93194935
      1.56000000	      7.91127463	      2.17932405	     -4.01249423	      0.19433879	      1.02709691	     -0.00212565	      6.22837199	     -6.53872034	     -5.01225525	    -68.84913719	      0.09871711	      0.00000000	      0.00000000	     -1.57406683	      6.44588405	     -3.55805985	    -12.69651191	     10.27691471	      0.00000000	      0.00000000	    -18.66173384	     -5.84243907	     -5.39936792
      1.57000000	      8.00452083	      2.02106076	     -3.76180516	      0.19372828	      1.02788767	     -0.00311390	      7.25100922	     -6.26360154	     -4.80938815	    -69.70768941	      1.10811808	      0.00000000	      0.00000000	     -2.23089362	      6.36807831	     -2.99024577	    -12.55544320	     10.66379218	      0.00000000	      0.00000000	    -18.77339619	     -5.60710339	     -5.77460265
      1.58000000	      8.11535102	      1.84891798	     -3.49583469	      0.19295969	      1.02875021	     -0.00399790	      8.23053334	     -5.95583102	     -4.63918334	    -70.31595760	      1.71777941	      0.00000000	      0.00000000	     -2.85409310	      6.25413668	     -2.62461480	    -12.49485460	     10.89993235	      0.00000000	      0.00000000	    -18.92740505	     -5.36541427	     -6.14484865
      1.59000000	      8.20177917	      1.65945281	     -3.23740965	      0.19211191	      1.02956203	     -0.00479485	      9.20028234	     -5.58211861	     -4.42427064	    -70.69006816	      2.23042667	      0.00000000	      0.00000000	     -3.47116598	      6.11135164	     -2.27680408	    -12.38281620	     11.12558294	      0.00000000	      0.00000000	    -19.06199835	     -5.10690579	     -6.47109804
      1.60000000	      8.26406528	      1.45771882	     -2.99976776	      0.19117486	      1.03029371	     -0.00548764	     10.16500328	     -5.16135477	     -4.17915928	    -70.84687721	      2.68337282	      0.00000000	      0.00000000	     -4.08214021	      5.94530585	     -1.95659575	    -12.21899405	     11.33341158	      0.00000000	      0.00000000	    -19.17850259	     -4.84414349	     -6.74304149
      1.61000000	      8.29837642	      1.23231781	     -2.78588603	      0.19017030	      1.03092473	     -0.00605653	     11.11688582	     -4.68780501	     -3.92420419	    -70.77974904	      3.15462751	      0.00000000	      0.00000000	     -4.67978573	      5.74234233	     -1.69550258	    -12.01437822	     11.53294689	      0.00000000	      0.00000000	    -19.27092509	     -4.56478477	     -6.97876738
      1.62000000	      8.29532027	      1.04856566	     -2.61795109	      0.18909075	      1.03141819	     -0.00657976	     12.09322058	     -4.24222333	     -3.61022904	    -70.52776300	      3.52985191	      0.00000000	      0.00000000	     -5.28239513	      5.58722789	     -1.43796126	    -11.69461754	     11.70470072	      0.00000000	      0.00000000	    -19.32709646	     -4.33244384	     -7.16761392
